<svg xmlns="http://www.w3.org/2000/svg" viewBox="0 0 512 512">
  <defs>
    <linearGradient id="emerald" x1="0%" y1="0%" x2="100%" y2="100%">
      <stop offset="0%" stop-color="#34d399"/>
      <stop offset="100%" stop-color="#059669"/>
    </linearGradient>
    
    <linearGradient id="tealBlue" x1="0%" y1="0%" x2="100%" y2="100%">
      <stop offset="0%" stop-color="#06b6d4"/>
      <stop offset="100%" stop-color="#0891b2"/>
    </linearGradient>
    
    <filter id="shadow5">
      <feDropShadow dx="0" dy="4" stdDeviation="8" flood-color="#000" flood-opacity="0.3"/>
    </filter>
  </defs>
  
  <!-- 深色背景 -->
  <rect width="512" height="512" rx="96" fill="#0f172a"/>
  
  <!-- 六边形框架 - 科技感 -->
  <polygon points="256,60 430,140 430,320 256,400 82,320 82,140" 
           fill="none" 
           stroke="url(#tealBlue)" 
           stroke-width="3" 
           opacity="0.4"/>
  
  <!-- 中心圆环 - 显微镜视野 -->
  <circle cx="256" cy="230" r="130" fill="none" stroke="url(#emerald)" stroke-width="6"/>
  <circle cx="256" cy="230" r="115" fill="none" stroke="#34d399" stroke-width="2" opacity="0.5"/>
  
  <!-- 病原体图形 - 简约风格 -->
  <g transform="translate(256, 230)" filter="url(#shadow5)">
    <!-- 中心体 -->
    <circle r="45" fill="url(#emerald)"/>
    <circle r="30" fill="#0f172a" opacity="0.4"/>
    <circle r="18" fill="url(#tealBlue)"/>
    
    <!-- 六个突触/鞭毛 -->
    <g stroke="url(#emerald)" stroke-width="8" stroke-linecap="round">
      <line x1="0" y1="-48" x2="0" y2="-85"/>
      <line x1="42" y1="-24" x2="74" y2="-42"/>
      <line x1="42" y1="24" x2="74" y2="42"/>
      <line x1="0" y1="48" x2="0" y2="85"/>
      <line x1="-42" y1="24" x2="-74" y2="42"/>
      <line x1="-42" y1="-24" x2="-74" y2="-42"/>
    </g>
    
    <!-- 端点 -->
    <g fill="url(#tealBlue)">
      <circle cx="0" cy="-90" r="12"/>
      <circle cx="78" cy="-45" r="12"/>
      <circle cx="78" cy="45" r="12"/>
      <circle cx="0" cy="90" r="12"/>
      <circle cx="-78" cy="45" r="12"/>
      <circle cx="-78" cy="-45" r="12"/>
    </g>
  </g>
  
  <!-- 底部横条 - 数据分析暗示 -->
  <g transform="translate(136, 420)">
    <rect width="240" height="8" rx="4" fill="#1e293b"/>
    <rect width="60" height="8" rx="4" fill="url(#emerald)" opacity="0.8"/>
    <rect x="70" width="80" height="8" rx="4" fill="url(#tealBlue)" opacity="0.6"/>
    <rect x="160" width="40" height="8" rx="4" fill="url(#emerald)" opacity="0.4"/>
  </g>
  
  <!-- 文字标识 -->
  <text x="256" y="470" text-anchor="middle" fill="#94a3b8" font-family="system-ui, -apple-system, sans-serif" font-size="28" font-weight="600" letter-spacing="3">
    DMP
  </text>
</svg>

