<svg xmlns="http://www.w3.org/2000/svg" viewBox="0 0 512 512">
  <defs>
    <linearGradient id="emerald" x1="0%" y1="0%" x2="100%" y2="100%">
      <stop offset="0%" stop-color="#34d399"/>
      <stop offset="100%" stop-color="#059669"/>
    </linearGradient>
    
    <linearGradient id="tealBlue" x1="0%" y1="0%" x2="100%" y2="100%">
      <stop offset="0%" stop-color="#06b6d4"/>
      <stop offset="100%" stop-color="#0891b2"/>
    </linearGradient>
    
    <filter id="shadow">
      <feDropShadow dx="0" dy="2" stdDeviation="4" flood-color="#000" flood-opacity="0.25"/>
    </filter>
  </defs>
  
  <!-- 深色圆角背景 -->
  <rect width="512" height="512" rx="90" fill="#0a1628"/>
  
  <!-- 六边形框架 - 完全对称 -->
  <polygon points="256,55 426,153 426,349 256,447 86,349 86,153" 
           fill="none" 
           stroke="url(#tealBlue)" 
           stroke-width="3" 
           opacity="0.35"/>
  
  <!-- 中心圆环 - 完全居中 -->
  <circle cx="256" cy="256" r="140" fill="none" stroke="url(#emerald)" stroke-width="5"/>
  <circle cx="256" cy="256" r="125" fill="none" stroke="#34d399" stroke-width="2" opacity="0.4"/>
  
  <!-- 病原体图形 - 完全对称的六角星布局 -->
  <g transform="translate(256, 256)" filter="url(#shadow)">
    <!-- 中心核心 - 三层圆 -->
    <circle r="48" fill="url(#emerald)"/>
    <circle r="32" fill="#0a1628" opacity="0.35"/>
    <circle r="20" fill="url(#tealBlue)"/>
    
    <!-- 六个突触 - 精确60度间隔 -->
    <g stroke="url(#emerald)" stroke-width="9" stroke-linecap="round">
      <!-- 0° (上) -->
      <line x1="0" y1="-52" x2="0" y2="-90"/>
      <!-- 60° (右上) -->
      <line x1="45" y1="-26" x2="78" y2="-45"/>
      <!-- 120° (右下) -->
      <line x1="45" y1="26" x2="78" y2="45"/>
      <!-- 180° (下) -->
      <line x1="0" y1="52" x2="0" y2="90"/>
      <!-- 240° (左下) -->
      <line x1="-45" y1="26" x2="-78" y2="45"/>
      <!-- 300° (左上) -->
      <line x1="-45" y1="-26" x2="-78" y2="-45"/>
    </g>
    
    <!-- 六个端点球 - 精确对称位置 -->
    <g fill="url(#tealBlue)">
      <circle cx="0" cy="-98" r="14"/>
      <circle cx="85" cy="-49" r="14"/>
      <circle cx="85" cy="49" r="14"/>
      <circle cx="0" cy="98" r="14"/>
      <circle cx="-85" cy="49" r="14"/>
      <circle cx="-85" cy="-49" r="14"/>
    </g>
    
    <!-- 端点高光 - 统一位置 -->
    <g fill="#fff" opacity="0.35">
      <circle cx="-4" cy="-102" r="5"/>
      <circle cx="81" cy="-53" r="5"/>
      <circle cx="81" cy="45" r="5"/>
      <circle cx="-4" cy="94" r="5"/>
      <circle cx="-89" cy="45" r="5"/>
      <circle cx="-89" cy="-53" r="5"/>
    </g>
  </g>
</svg>
